<?xml version="1.0" encoding="UTF-8"?>
<svg width="70px" height="70px" viewBox="0 0 70 70" version="1.1" xmlns="http://www.w3.org/2000/svg" xmlns:xlink="http://www.w3.org/1999/xlink">
    <title>email</title>
    <g id="Design" stroke="none" stroke-width="1" fill="none" fill-rule="evenodd">
        <g id="01_Home-draft" transform="translate(-1308.000000, -11308.000000)" fill="#00A251" fill-rule="nonzero">
            <g id="Group-23" transform="translate(-2.000000, 9922.000000)">
                <g id="Information" transform="translate(160.000000, 1336.000000)">
                    <g id="Email" transform="translate(1100.000000, 0.000000)">
                        <g id="email" transform="translate(50.000034, 49.999959)">
                            <path d="M69.3102197,0.179689873 C68.8837939,-0.0636695019 68.3593408,-0.0595679394 67.9368799,0.190353936 L42.8826221,15.0057446 C42.2326611,15.390061 42.0173291,16.2284203 42.4016455,16.8783813 C42.7858252,17.5282055 43.6241846,17.7435375 44.2742822,17.3593578 L62.2503369,6.72961175 L28.7670947,41.4716235 L12.1136572,36.3766625 L33.8471533,23.5251 C34.4971143,23.1406469 34.7124463,22.3022875 34.3281299,21.6523266 C33.9439502,21.0025024 33.1054541,20.7868969 32.4554932,21.17135 L8.05406738,35.6005102 C7.58785645,35.8762719 7.32822754,36.4011352 7.39234863,36.9391235 C7.45646973,37.4771117 7.83203613,37.9263696 8.34992676,38.0848266 L28.2382666,44.1693578 L37.0124658,60.1398852 C37.021626,60.1564282 37.0310596,60.1703735 37.0407666,60.1828149 C37.1871924,60.4269946 37.406626,60.6264672 37.6803369,60.7415844 C37.8516455,60.8136352 38.0317041,60.8487719 38.2105322,60.8487719 C38.5609424,60.8487719 38.9058838,60.7139672 39.166333,60.4592602 L49.2553564,50.5991039 L68.2327393,56.4050024 C68.3639893,56.445061 68.4986572,56.4648852 68.6326416,56.4648852 C68.9219385,56.4648852 69.2076807,56.3730102 69.4458447,56.1967797 C69.7943408,55.9389282 69.9999658,55.5310961 69.9999658,55.0976977 L69.9999658,1.36722894 C69.9999658,0.876271904 69.7366455,0.422912529 69.3102197,0.179689873 Z M37.0869775,45.0119555 C36.9286572,45.240686 36.8437549,45.5122094 36.8437549,45.7904321 L36.8437549,54.1536547 L30.8523291,43.2482836 L57.3649658,15.7391039 L37.0869775,45.0119555 Z M39.5781299,56.2336938 L39.5781299,47.6385961 L46.2759814,49.6877367 L39.5781299,56.2336938 Z M67.2655908,53.2496703 L40.4004932,45.030686 L67.2655908,6.24863519 L67.2655908,53.2496703 Z" id="Shape"></path>
                            <path d="M22.4796729,47.5203344 C21.9456494,46.9864477 21.0802197,46.9864477 20.5460596,47.5203344 L7.78309082,60.2833032 C7.2492041,60.8171899 7.2492041,61.682893 7.78309082,62.2169164 C8.05023926,62.4837914 8.40010254,62.6172289 8.74996582,62.6172289 C9.0998291,62.6172289 9.44969238,62.4837914 9.7167041,62.2167797 L22.4796729,49.453811 C23.0135596,48.920061 23.0135596,48.0543578 22.4796729,47.5203344 Z" id="Path"></path>
                            <path d="M5.47842285,64.5214477 C4.94439941,63.9878344 4.07896973,63.9878344 3.54494629,64.5215844 L0.400415039,67.6661157 C-0.13347168,68.2000024 -0.13347168,69.0657055 0.400415039,69.5997289 C0.667426758,69.8666039 1.01729004,70.0000414 1.36715332,70.0000414 C1.7170166,70.0000414 2.06687988,69.8664672 2.3338916,69.5995922 L5.47842285,66.455061 C6.01230957,65.9211742 6.01230957,65.0554711 5.47842285,64.5214477 Z" id="Path"></path>
                            <path d="M19.5027588,67.5855883 C19.2485986,67.3312914 18.8958643,67.1850024 18.5362939,67.1850024 C18.1752197,67.1850024 17.8239893,67.3312914 17.5696924,67.5855883 C17.3153955,67.8398852 17.1691064,68.1912524 17.1691064,68.5521899 C17.1691064,68.9117602 17.3152588,69.2644946 17.5696924,69.5187914 C17.8239893,69.7730883 18.1767236,69.9193774 18.5362939,69.9193774 C18.8958643,69.9193774 19.2485986,69.7730883 19.5027588,69.5187914 C19.7570557,69.2644946 19.9034814,68.9117602 19.9034814,68.5521899 C19.9034814,68.1912524 19.7571924,67.8398852 19.5027588,67.5855883 Z" id="Path"></path>
                            <path d="M29.6749072,57.4130297 C29.1412939,56.879143 28.2758643,56.879143 27.7414307,57.4130297 L20.9812354,64.1730883 C20.4473486,64.706975 20.4473486,65.5726782 20.9812354,66.1065649 C21.2482471,66.3735766 21.5981104,66.5070141 21.9479736,66.5070141 C22.2978369,66.5070141 22.6477002,66.3734399 22.9147119,66.1065649 L29.6749072,59.3465063 C30.2087939,58.8126196 30.2087939,57.9469164 29.6749072,57.4130297 Z" id="Path"></path>
                            <path d="M53.0063721,56.8940453 C52.4723486,56.3602953 51.6069189,56.3602953 51.0728955,56.8940453 L44.2943799,63.672561 C43.7604932,64.2064477 43.7604932,65.0721508 44.2943799,65.6061742 C44.5613916,65.8730492 44.9112549,66.0066235 45.2611182,66.0066235 C45.6109814,66.0066235 45.9608447,65.8730492 46.2278564,65.6061742 L53.0063721,58.8276586 C53.5402588,58.2937719 53.5402588,57.4280688 53.0063721,56.8940453 Z" id="Path"></path>
                            <path d="M38.7597314,18.6361742 C38.5054346,18.3818774 38.1527002,18.2355883 37.7931299,18.2355883 C37.4335596,18.2355883 37.0808252,18.3818774 36.8265283,18.6361742 C36.5723682,18.8904711 36.4259424,19.2432055 36.4259424,19.604143 C36.4259424,19.9637133 36.5722314,20.3150805 36.8265283,20.5693774 C37.0808252,20.8250414 37.4335596,20.9699633 37.7931299,20.9699633 C38.1527002,20.9699633 38.5054346,20.8250414 38.7597314,20.5693774 C39.0138916,20.3150805 39.1603174,19.9637133 39.1603174,19.604143 C39.1603174,19.2432055 39.0140283,18.8904711 38.7597314,18.6361742 Z" id="Path"></path>
                        </g>
                    </g>
                </g>
            </g>
        </g>
    </g>
</svg>