<?xml version="1.0" encoding="UTF-8"?>
<svg width="72px" height="70px" viewBox="0 0 72 70" version="1.1" xmlns="http://www.w3.org/2000/svg" xmlns:xlink="http://www.w3.org/1999/xlink">
    <title>location</title>
    <g id="Design" stroke="none" stroke-width="1" fill="none" fill-rule="evenodd">
        <g id="01_Home-draft" transform="translate(-208.000000, -11308.000000)" fill="#00A251" fill-rule="nonzero">
            <g id="Group-23" transform="translate(-2.000000, 9922.000000)">
                <g id="Information" transform="translate(160.000000, 1336.000000)">
                    <g id="location" transform="translate(50.000047, 50.034118)">
                        <path d="M23.3296748,48.0871323 C26.2582859,52.216299 29.1821748,55.9093545 31.1199526,58.2879656 C31.4020359,58.6340768 31.6663415,58.9551879 31.9223137,59.2644934 L26.0746748,59.2644934 C25.4200915,59.2644934 24.8895359,59.795049 24.8895359,60.4496323 C24.8895359,61.1042156 25.4200915,61.6347712 26.0746748,61.6347712 L45.0374526,61.6347712 C45.6920359,61.6347712 46.2225915,61.1042156 46.2225915,60.4496323 C46.2225915,59.795049 45.6920359,59.2644934 45.0374526,59.2644934 L39.1898137,59.2644934 C39.4457859,58.9551879 39.7100915,58.6339379 39.9934248,58.2879656 C41.9299526,55.917549 44.8527304,52.216299 47.7824526,48.0871323 C50.6892582,44.072549 53.3056471,39.8556045 55.6117582,35.4685212 C58.0318971,30.7158823 59.2598331,26.7704656 59.2598331,23.7411601 C59.2678693,17.4465768 56.7700915,11.4076879 52.3181471,6.95768787 C52.0207859,6.64935453 51.5802304,6.52546564 51.1657859,6.63366009 C50.7513415,6.74185453 50.4274526,7.06518787 50.3187026,7.47949342 C50.2099526,7.89379898 50.3331471,8.33449342 50.6410637,8.6322712 C54.6482859,12.6383823 56.8964804,18.0746323 56.8893971,23.7410212 C56.8893971,26.3935212 55.7492582,29.9774101 53.4998137,34.3922712 C51.2457859,38.6776879 48.6887026,42.7968545 45.8482859,46.7182434 C42.9588415,50.7940768 40.0705082,54.4456045 38.1564804,56.7922712 C37.5200915,57.5721323 36.9475915,58.2618545 36.4592582,58.845049 C36.2313415,59.1053268 35.9021748,59.2544934 35.5562026,59.2544934 C35.2102304,59.2544934 34.8810637,59.1051879 34.6531471,58.845049 C34.1648137,58.2619934 33.5924526,57.5721323 32.9559248,56.7922712 C31.0418971,54.4468545 28.1535637,50.7951879 25.2641193,46.7182434 C22.4237026,42.7968545 19.8666193,38.6776879 17.6125915,34.3922712 C15.3607859,29.9774101 14.2230082,26.3935212 14.2230082,23.7410212 C14.2223137,15.1564379 19.3562026,7.40393787 27.2600915,4.05393787 C32.5709248,1.82699342 38.5537026,1.82699342 43.8645359,4.05393787 C44.2545359,4.21921564 44.7030082,4.16407675 45.0412026,3.90893787 C45.3793971,3.65393787 45.5557859,3.23782675 45.5039804,2.81741009 C45.4521748,2.39699342 45.1800915,2.03616009 44.7900915,1.87088231 C32.7209248,-3.21967325 18.8100915,2.43504898 13.7157859,14.502549 C12.4803693,17.4256045 11.8467582,20.5676879 11.8526886,23.7410212 C11.8526886,26.7703268 13.0806471,30.7158823 15.5007859,35.4743545 C17.8066193,39.8594934 20.4231471,44.0744934 23.3296748,48.0871323 Z" id="Path"></path>
                        <path d="M35.5559248,13.0424101 C36.2105082,13.0424101 36.7410637,12.5118545 36.7410637,11.8572712 C36.7410637,11.2026879 36.2105082,10.6721323 35.5559248,10.6721323 C29.9017582,10.6721323 25.0348137,14.6661601 23.9316193,20.2117156 C22.8284248,25.7572712 25.7963415,31.3097712 31.0200915,33.4736601 C36.2438415,35.637549 42.2687026,33.8099101 45.4100915,29.1086601 C48.5514804,24.4074101 47.9343971,18.1417156 43.9363415,14.1435212 C43.6387026,13.8354656 43.1981471,13.7118545 42.7837026,13.8203268 C42.3693971,13.928799 42.0457859,14.2524101 41.9373137,14.6667156 C41.8288415,15.0811601 41.9524526,15.5217156 42.2605082,15.8193545 C45.4591193,19.0178268 45.9528693,24.0301879 43.4399526,27.791299 C40.9270359,31.5524101 36.1071748,33.0146323 31.9281471,31.283799 C27.7491193,29.5529656 25.3746748,25.1110212 26.2568971,20.6744934 C27.1391193,16.2379656 31.0325915,13.042549 35.5559248,13.0424101 Z" id="Path"></path>
                        <path d="M70.6646748,64.6821323 L63.3757859,51.645049 C62.7167582,50.4867156 61.4835637,49.7747712 60.1509248,49.7830248 L51.7041193,49.7830248 C51.0495359,49.7830248 50.5189804,50.3136601 50.5189804,50.9682434 C50.5189804,51.6228268 51.0495359,52.1533823 51.7041193,52.1533823 L60.1509248,52.1533823 C60.6253693,52.1442156 61.0680082,52.3915768 61.3088415,52.8004656 L68.5953693,65.837549 C68.7938415,66.1767156 68.7896748,66.5974101 68.5846748,66.9326879 C68.3425915,67.3326879 67.9048137,67.5722712 67.4374526,67.5608823 L3.67453594,67.5608823 C3.2075915,67.5719934 2.77036928,67.3322712 2.52842483,66.9326879 C2.32342483,66.5974101 2.31939706,66.1767156 2.51773039,65.837549 L9.80425817,52.8004656 C10.0446748,52.3917156 10.4868971,52.1443545 10.9609248,52.1533823 L19.4077304,52.1533823 C20.0623137,52.1533823 20.5928693,51.6228268 20.5928693,50.9682434 C20.5928693,50.3136601 20.0623137,49.7830248 19.4077304,49.7830248 L10.9610637,49.7830248 C9.62773039,49.7743545 8.39356372,50.486299 7.7338415,51.645049 L0.446063722,64.6821323 C-0.161575167,65.7554656 -0.147547389,67.0721323 0.482869277,68.1322712 C1.14703594,69.2611601 2.36495261,69.9476879 3.67453594,69.9314379 L67.4374526,69.9314379 C68.7466193,69.9472712 69.9641193,69.2608823 70.6280082,68.1322712 C71.2584248,67.0719934 71.2724526,65.7554656 70.6646748,64.6821323 Z" id="Path"></path>
                        <path d="M58.0745359,55.7090768 L53.3338415,55.7090768 C53.0998137,55.7094934 52.8710637,55.7786601 52.6760637,55.9082434 L49.1205082,58.2786601 C48.5759248,58.6419934 48.4289804,59.3779656 48.7921748,59.922549 C49.1555082,60.4671323 49.8914804,60.6140768 50.4360637,60.2508823 L53.6893971,58.0796323 L58.0745359,58.0796323 C58.7291193,58.0796323 59.2596748,57.5489379 59.2596748,56.8944934 C59.2596748,56.2396323 58.7291193,55.7090768 58.0745359,55.7090768 Z" id="Path"></path>
                        <path d="M50.9634248,64.0053268 C50.9634248,64.6599101 51.4939804,65.1904656 52.1485637,65.1904656 L61.6300915,65.1904656 C62.2846748,65.1904656 62.8152304,64.6599101 62.8152304,64.0053268 C62.8152304,63.3507434 62.2846748,62.8201879 61.6300915,62.8201879 L52.1485637,62.8201879 C51.4939804,62.8201879 50.9634248,63.3507434 50.9634248,64.0053268 Z" id="Path"></path>
                        <path d="M21.3337026,60.4497723 C21.8562026,60.4504656 22.3174526,60.108799 22.4692582,59.608799 C22.6210637,59.108799 22.4274526,58.5683823 21.9927304,58.2785212 L18.4371748,55.9081045 C18.2418971,55.7783823 18.0125915,55.7090768 17.7781471,55.7089379 L13.0374526,55.7089379 C12.3828693,55.7089379 11.8523137,56.2396323 11.8523137,56.8940768 C11.8523137,57.5486601 12.3830082,58.0792156 13.0374526,58.0792156 L17.4225915,58.0792156 L20.6795359,60.2504656 C20.8732859,60.3799101 21.1009248,60.4492156 21.3337026,60.4497723 Z" id="Path"></path>
                        <path d="M9.48189706,62.8201879 C8.82731372,62.8201879 8.29675817,63.3507434 8.29675817,64.0053268 C8.29675817,64.6599101 8.82731372,65.1904656 9.48189706,65.1904656 L18.9634248,65.1904656 C19.6180082,65.1904656 20.1485637,64.6599101 20.1485637,64.0053268 C20.1485637,63.3507434 19.6180082,62.8201879 18.9634248,62.8201879 L9.48189706,62.8201879 Z" id="Path"></path>
                    </g>
                </g>
            </g>
        </g>
    </g>
</svg>