<?xml version="1.0" encoding="UTF-8"?>
<svg width="70px" height="70px" viewBox="0 0 70 70" version="1.1" xmlns="http://www.w3.org/2000/svg" xmlns:xlink="http://www.w3.org/1999/xlink">
    <title>Phone</title>
    <g id="Design" stroke="none" stroke-width="1" fill="none" fill-rule="evenodd">
        <g id="01_Home-draft" transform="translate(-758.000000, -11308.000000)" fill="#00A251" fill-rule="nonzero">
            <g id="Group-23" transform="translate(-2.000000, 9922.000000)">
                <g id="Information" transform="translate(160.000000, 1336.000000)">
                    <g id="Phone_no" transform="translate(550.000000, 0.000000)">
                        <g id="Phone" transform="translate(50.000129, 49.999982)">
                            <path d="M31.7848442,53.3646571 C31.2513206,53.8976465 31.2513206,54.763354 31.7848442,55.2974116 C32.3194358,55.8309351 33.1846091,55.8309351 33.7175987,55.2974116 C34.2521904,54.763354 34.2521904,53.8976465 33.7175987,53.3646571 C33.1846091,52.8300653 32.3194358,52.8300653 31.7848442,53.3646571 L31.7848442,53.3646571 Z" id="Path"></path>
                            <path d="M66.8441246,50.9902368 L56.4641807,42.1638667 C56.4161155,42.1232782 56.3653801,42.0858942 56.3125084,42.0522485 C53.5893486,40.3186976 50.0928733,40.7026851 47.809777,42.9852472 L42.1503684,48.6441217 C41.7583702,49.0366541 41.1735771,49.1525446 40.6608818,48.9410578 C34.2703482,46.2974725 29.0205619,42.3176753 25.0573204,37.1132837 C22.0350883,33.1447017 20.9456108,29.9910913 20.8019493,29.5467554 C20.7848595,29.4516932 20.7576225,29.3571649 20.7191703,29.264773 C20.5071495,28.7520776 20.62304,28.1683527 21.0161064,27.7763543 L26.6749809,22.1158778 C28.9580772,19.8327814 29.3415305,16.3363062 27.6079796,13.6131463 C27.594094,13.59125 27.5796744,13.5698877 27.5647209,13.5485254 L20.0686881,3.13173161 C17.7102897,-0.527097157 12.5731895,-1.07984682 9.49007481,2.00273388 L8.35680461,3.13600407 C8.35627059,3.13707212 8.35520241,3.1381403 8.35413436,3.13867433 L4.30811385,7.18469484 C-0.51656273,12.0099054 -1.30589982,19.2602717 2.02608555,28.1533991 C4.88008946,35.7711969 10.5934379,44.1083704 18.1135032,51.6284357 C25.8114098,59.3263423 34.3739555,65.1454341 42.2235344,68.0138574 C49.9930045,70.8523737 58.2575462,71.2021815 64.1070793,65.3521143 L67.922921,61.5368067 C70.99215,58.4670435 70.4564903,53.3635889 66.8441246,50.9902368 Z M54.77015,44.3118464 L65.1410149,53.1307398 C65.188546,53.1713281 65.2392815,53.2087122 65.2921531,53.2423579 C67.5074241,54.652804 67.8428123,57.7503382 65.9890982,59.6035181 L65.7060478,59.8871027 L48.0175255,46.6435418 L49.7430657,44.9185358 C51.0915611,43.5695063 53.1466148,43.3254419 54.77015,44.3118464 L54.77015,44.3118464 Z M17.7845237,4.63403566 C17.7984093,4.65593212 17.8128287,4.67782845 17.8277825,4.69865673 L25.3206108,15.1117121 C26.3385247,16.7411219 26.1030051,18.8212762 24.7416923,20.1825892 L23.0695579,21.8552576 L11.1023948,4.25699105 L11.4233635,3.93602232 C13.2845543,2.07483155 16.3794182,2.42677556 17.7845237,4.63403566 Z M43.1613395,65.4455744 C35.6781243,62.7111994 27.4691246,57.11748 20.0467918,49.6951471 C12.7964256,42.445315 7.30577922,34.4542108 4.58582381,27.1942316 C2.54412151,21.7447077 1.17426375,14.1851221 6.24140243,9.11851743 L9.1343925,6.22499333 L21.1015556,23.8232599 L19.0833518,25.8425317 C17.935128,26.9886195 17.5741051,28.6847865 18.1471489,30.1951014 C18.5786674,31.9660365 20.5642936,35.6419549 22.5675437,38.3506952 C25.5155418,42.3369012 30.8662651,47.8478418 39.615731,51.4676844 C41.1532828,52.1037469 42.906594,51.7544733 44.083657,50.5779443 L46.0644768,48.5965907 L63.7529991,61.8401514 L62.1737906,63.4188257 C56.7418907,68.8512598 48.8367698,67.5193201 43.1613395,65.4455744 Z" id="Shape"></path>
                            <path d="M29.2192314,50.1004969 C27.7751396,48.8342463 25.2773521,46.6563592 23.9619682,45.3030573 C20.7362602,41.9881616 17.3519371,37.9699121 15.339608,35.0667749 C14.9096916,34.4462 14.0578697,34.2913233 13.4372947,34.7217738 C12.8167198,35.1516901 12.6623772,36.003512 13.0922935,36.6240869 C15.6301353,40.2855859 19.3589256,44.4928919 22.0019768,47.2091089 C23.3905266,48.6382471 25.9096764,50.8353602 27.4162529,52.1560846 C27.982888,52.6527583 28.8464592,52.5982843 29.345803,52.029513 C29.8435447,51.4623438 29.7869347,50.5982386 29.2192314,50.1004969 Z" id="Path"></path>
                        </g>
                    </g>
                </g>
            </g>
        </g>
    </g>
</svg>